<?xml version="1.0" encoding="UTF-8" standalone="no"?>
<!-- Created with Inkscape (http://www.inkscape.org/) -->

<svg
   width="210mm"
   height="357mm"
   viewBox="0 0 210 357"
   version="1.1"
   id="svg1887"
   inkscape:version="1.1.1 (3bf5ae0d25, 2021-09-20)"
   sodipodi:docname="よみとりしっぱい.svg"
   xmlns:inkscape="http://www.inkscape.org/namespaces/inkscape"
   xmlns:sodipodi="http://sodipodi.sourceforge.net/DTD/sodipodi-0.dtd"
   xmlns="http://www.w3.org/2000/svg"
   xmlns:svg="http://www.w3.org/2000/svg">
  <sodipodi:namedview
     id="namedview1889"
     pagecolor="#ffffff"
     bordercolor="#666666"
     borderopacity="1.0"
     inkscape:pageshadow="2"
     inkscape:pageopacity="0.0"
     inkscape:pagecheckerboard="0"
     inkscape:document-units="mm"
     showgrid="false"
     showguides="false"
     height="129mm"
     inkscape:zoom="0.73487585"
     inkscape:cx="500.76486"
     inkscape:cy="928.7283"
     inkscape:window-width="1920"
     inkscape:window-height="1051"
     inkscape:window-x="-9"
     inkscape:window-y="-9"
     inkscape:window-maximized="1"
     inkscape:current-layer="layer2" />
  <defs
     id="defs1884" />
  <g
     inkscape:groupmode="layer"
     id="layer2"
     inkscape:label="Layer 2"
     style="display:inline">
    <path
       style="display:inline;fill:none;stroke:#ff0000;stroke-width:5.63;stroke-linecap:butt;stroke-linejoin:miter;stroke-miterlimit:4;stroke-dasharray:none;stroke-opacity:1"
       d="M 4.4064149,37.096199 45.904575,6.2094455 104.81714,81.42778 164.47075,5.1193245 l 40.01608,30.5233805 -66.69347,87.936415 67.80503,86.11954 -40.20134,31.25013 -59.65361,-76.30846 -59.468346,76.49014 -41.49816,-29.61495 67.805031,-87.39133 z"
       id="path3608" />
    <text
       xml:space="preserve"
       style="font-stretch:semi-expanded;font-size:43.1785px;line-height:1.25;font-family:'Kristen ITC';-inkscape-font-specification:'Kristen ITC Semi-Expanded';font-variant-ligatures:none;letter-spacing:0px;display:none;fill:#ff0000;stroke-width:4.256;stroke-miterlimit:4;stroke-dasharray:none"
       x="13.644483"
       y="122.70961"
       id="text8973"
       transform="scale(1.0574554,0.94566639)"><tspan
         sodipodi:role="line"
         id="tspan8971"
         style="fill:#ff0000;stroke-width:4.256;stroke-miterlimit:4;stroke-dasharray:none"
         x="0"
         y="0">よみとり</tspan><tspan
         sodipodi:role="line"
         style="fill:#ff0000;stroke-width:4.256;stroke-miterlimit:4;stroke-dasharray:none"
         x="0"
         y="0"
         id="tspan8975">しっぱい</tspan></text>
    <path
       style="fill:none;stroke:#000000;stroke-width:3;stroke-linecap:round;stroke-linejoin:round;stroke-miterlimit:4;stroke-dasharray:none;stroke-opacity:1"
       d="M 38.684875,95.776259 47.55387,95.286013"
       id="path22482"
       sodipodi:nodetypes="cc" />
    <path
       style="fill:none;stroke:#000000;stroke-width:3;stroke-linecap:round;stroke-linejoin:round;stroke-miterlimit:4;stroke-dasharray:none;stroke-opacity:1"
       d="m 36.189076,86.55072 1.364312,22.68095 v 0 l -0.429841,2.95148 -1.157311,2.26703 -1.663029,1.1443 -2.399994,0.85081 -1.864499,0.32242 -3.16768,-0.11877 -2.893543,-1.39654 -1.586091,-1.79844 -0.152054,-2.3018 1.388573,-2.1502 0.973521,-0.70214 1.311961,-0.73457 4.080745,-0.4242 8.066777,0.62395 13.54862,5.52641"
       id="path22484"
       sodipodi:nodetypes="cccccccccccccccccc" />
    <path
       style="fill:none;stroke:#000000;stroke-width:3;stroke-linecap:round;stroke-linejoin:round;stroke-miterlimit:4;stroke-dasharray:none;stroke-opacity:1"
       d="m 70.717892,90.004591 13.362028,-1.701767 -4.872871,9.116848 -2.416432,4.904538 -1.504835,3.61719 -2.671853,4.23147 -2.085123,2.26984 -2.042584,0.79874 -1.417642,-0.19306 -1.771131,-0.98385 -0.980471,-1.21801 -0.469184,-2.1225 0.936186,-2.50766 2.090285,-2.53384 1.889746,-1.45042 3.386053,-1.40564 4.303416,-0.23311 4.626649,0.0345 6.844525,1.22607 13.677176,4.85319"
       id="path24394"
       sodipodi:nodetypes="cccccccccccccccccccc" />
    <path
       style="fill:none;stroke:#000000;stroke-width:3;stroke-linecap:round;stroke-linejoin:round;stroke-miterlimit:4;stroke-dasharray:none;stroke-opacity:1"
       d="m 94.479608,94.03841 -0.03191,9.29996 -1.73288,5.07052 -1.80944,4.09563 -3.547976,3.97201"
       id="path24396"
       sodipodi:nodetypes="ccccc" />
    <path
       style="fill:none;stroke:#000000;stroke-width:3;stroke-linecap:round;stroke-linejoin:round;stroke-miterlimit:4;stroke-dasharray:none;stroke-opacity:1"
       d="m 123.63116,85.570228 2.40665,14.618242"
       id="path26040"
       sodipodi:nodetypes="cc" />
    <path
       style="fill:none;stroke:#000000;stroke-width:3;stroke-linecap:round;stroke-linejoin:round;stroke-miterlimit:4;stroke-dasharray:none;stroke-opacity:1"
       d="m 140.47779,96.890456 -14.43998,3.298014 -5.86306,2.89295 -4.12013,3.79223 -0.50938,4.72196 1.13333,2.40889 1.65999,0.85467 4.49037,1.10632 18.36194,-0.35655"
       id="path26042"
       sodipodi:nodetypes="ccccccccc" />
    <path
       style="fill:none;stroke:#000000;stroke-width:3;stroke-linecap:round;stroke-linejoin:round;stroke-miterlimit:4;stroke-dasharray:none;stroke-opacity:1"
       d="m 164.50419,86.222886 1.07149,19.916984 2.12062,-0.2265 1.31397,-0.53739 4.44395,-4.21536"
       id="path27266"
       sodipodi:nodetypes="ccccc" />
    <path
       style="fill:none;stroke:#000000;stroke-width:3;stroke-linecap:round;stroke-linejoin:round;stroke-miterlimit:4;stroke-dasharray:none;stroke-opacity:1"
       d="m 183.85391,86.096828 0.79089,12.67273 -0.23861,4.597282 -1.18256,4.97902 -3.19641,4.81294 -6.44694,4.32618"
       id="path27268"
       sodipodi:nodetypes="cccccc" />
    <path
       style="fill:none;stroke:#000000;stroke-width:3;stroke-linecap:round;stroke-linejoin:round;stroke-miterlimit:4;stroke-dasharray:none;stroke-opacity:1"
       d="m 27.887838,142.32715 0.07253,23.0555 0.459223,2.05891 0.930684,1.50099 2.665132,1.84912 2.797912,0.76537 3.916106,0.11795 4.255961,-0.61585 5.005918,-2.07726 4.686478,-3.72899"
       id="path28682"
       sodipodi:nodetypes="cccccccccc" />
    <path
       style="fill:none;stroke:#000000;stroke-width:3;stroke-linecap:round;stroke-linejoin:round;stroke-miterlimit:4;stroke-dasharray:none;stroke-opacity:1"
       d="m 69.614946,156.1211 9.676203,-2.7372 7.170434,-1.40761 2.628895,0.21458 2.261155,0.37817 1.884259,0.83342 1.743225,1.31359 1.041403,1.83546 0.95907,2.7339 -0.337873,2.93692 -0.73175,2.27752 -1.411896,1.84498 -3.891675,2.43353 -10.206032,1.47074"
       id="path29718"
       sodipodi:nodetypes="cccccccccccccc" />
    <path
       style="fill:none;stroke:#000000;stroke-width:3;stroke-linecap:round;stroke-linejoin:round;stroke-miterlimit:4;stroke-dasharray:none;stroke-opacity:1"
       d="m 114.31126,142.82779 -1.35729,7.59586 -0.3726,8.08695 0.0363,11.96771"
       id="path31058"
       sodipodi:nodetypes="cccc" />
    <path
       style="fill:none;stroke:#000000;stroke-width:3;stroke-linecap:round;stroke-linejoin:round;stroke-miterlimit:4;stroke-dasharray:none;stroke-opacity:1"
       d="m 122.7688,150.21841 24.02408,-1.39594"
       id="path31060"
       sodipodi:nodetypes="cc" />
    <path
       style="fill:none;stroke:#000000;stroke-width:3;stroke-linecap:round;stroke-linejoin:round;stroke-miterlimit:4;stroke-dasharray:none;stroke-opacity:1"
       d="m 136.24784,141.26323 0.82326,10.00618 0.0703,7.51621 0.0481,4.06125 -0.3557,5.19752 -1.00757,2.0063 -1.61904,1.03043 -3.40998,0.5435 -2.60927,-0.18523 -2.69837,-0.9475 -1.28036,-1.72777 -0.25654,-1.48501 0.0242,-1.32527 1.18261,-1.82646 1.83761,-0.67691 4.92136,-0.52196 v 0 l 2.24985,0.35739 7.81879,2.59397 5.00993,2.58401"
       id="path31062"
       sodipodi:nodetypes="cccccccccccccccccccc" />
    <path
       style="fill:none;stroke:#000000;stroke-width:1.5;stroke-linecap:butt;stroke-linejoin:miter;stroke-miterlimit:4;stroke-dasharray:none;stroke-opacity:1"
       d="m 145.62718,137.59105 1.45395,0.1287 0.9162,0.58725 0.56067,0.48159 0.69,0.70977 0.61816,1.55082 -0.42576,2.372 -0.69452,0.77184 -1.47997,0.83538 h -2.55265 l -1.1267,-0.44939 -0.86909,-0.60356 -0.4718,-0.85795 v 0 l -0.1796,-0.3266 v 0 0 0 l -0.29006,-0.49537 -0.11882,-0.89988 0.34588,-1.63012 1.26057,-1.48117 1.28274,-0.59747 z"
       id="path31064"
       sodipodi:nodetypes="cccccccccccccccccccccccc" />
    <path
       style="fill:none;stroke:#000000;stroke-width:3;stroke-linecap:round;stroke-linejoin:round;stroke-miterlimit:4;stroke-dasharray:none;stroke-opacity:1"
       d="m 159.8186,144.22893 -0.26278,19.1567 1.26656,3.81932 1.29103,1.92536 2.69258,1.06443 3.11581,-0.67248 2.10205,-2.39551 1.99261,-3.00031"
       id="path33900"
       sodipodi:nodetypes="cccccccc" />
    <path
       style="fill:none;stroke:#000000;stroke-width:3;stroke-linecap:round;stroke-linejoin:round;stroke-miterlimit:4;stroke-dasharray:none;stroke-opacity:1"
       d="m 183.69619,146.76812 3.58214,3.08552 2.41941,4.12238 2.00141,5.12328 -0.3505,3.25683"
       id="path33902"
       sodipodi:nodetypes="ccccc" />
  </g>
</svg>
